<svg width="1296" height="619" viewBox="0 0 1296 619" fill="none" xmlns="http://www.w3.org/2000/svg">
<g filter="url(#filter0_d_79_1353)">
<path d="M20 34C20 24.0589 28.0589 16 38 16H1258C1267.94 16 1276 24.0589 1276 34V577C1276 586.941 1267.94 595 1258 595H38C28.0589 595 20 586.941 20 577V34Z" fill="#FFE15D"/>
<path d="M20 34C20 24.0589 28.0589 16 38 16H1258C1267.94 16 1276 24.0589 1276 34V577C1276 586.941 1267.94 595 1258 595H38C28.0589 595 20 586.941 20 577V34Z" fill="url(#paint0_linear_79_1353)" fill-opacity="0.3"/>
</g>
<defs>
<filter id="filter0_d_79_1353" x="0" y="0" width="1296" height="619" filterUnits="userSpaceOnUse" color-interpolation-filters="sRGB">
<feFlood flood-opacity="0" result="BackgroundImageFix"/>
<feColorMatrix in="SourceAlpha" type="matrix" values="0 0 0 0 0 0 0 0 0 0 0 0 0 0 0 0 0 0 127 0" result="hardAlpha"/>
<feOffset dy="4"/>
<feGaussianBlur stdDeviation="10"/>
<feComposite in2="hardAlpha" operator="out"/>
<feColorMatrix type="matrix" values="0 0 0 0 0 0 0 0 0 0 0 0 0 0 0 0 0 0 0.25 0"/>
<feBlend mode="normal" in2="BackgroundImageFix" result="effect1_dropShadow_79_1353"/>
<feBlend mode="normal" in="SourceGraphic" in2="effect1_dropShadow_79_1353" result="shape"/>
</filter>
<linearGradient id="paint0_linear_79_1353" x1="648" y1="15.9999" x2="648" y2="595" gradientUnits="userSpaceOnUse">
<stop stop-opacity="0"/>
<stop offset="1"/>
</linearGradient>
</defs>
</svg>
