<svg width="52" height="49" viewBox="0 0 52 49" fill="none" xmlns="http://www.w3.org/2000/svg">
<path d="M45.2204 5.56544C44.2693 9.37933 40.8415 12.0538 36.9146 12.0538C32.9877 12.0538 29.5599 9.37933 28.6088 5.56544L27.7801 2.27891C27.3846 0.668607 25.7461 -0.310761 24.1263 0.09417C22.5066 0.499101 21.5367 2.12824 21.9416 3.74796L22.7609 7.0345C23.7967 11.178 26.5465 14.5304 30.1344 16.4138V45.2016C30.1344 46.8684 31.481 48.215 33.1478 48.215C34.8146 48.215 36.1613 46.8684 36.1613 45.2016V33.1478H37.668V45.2016C37.668 46.8684 39.0146 48.215 40.6814 48.215C42.3482 48.215 43.6949 46.8684 43.6949 45.2016V16.4138C47.2827 14.5304 50.0325 11.178 51.0684 7.0345L51.8876 3.74796C52.2926 2.13766 51.3132 0.499101 49.6935 0.09417C48.0738 -0.310761 46.4446 0.668607 46.0491 2.27891L45.2298 5.56544H45.2204ZM36.9146 9.04032C38.1134 9.04032 39.2632 8.56409 40.1109 7.71639C40.9585 6.8687 41.4348 5.71898 41.4348 4.52016C41.4348 3.32134 40.9585 2.17162 40.1109 1.32392C39.2632 0.476229 38.1134 0 36.9146 0C35.7158 0 34.5661 0.476229 33.7184 1.32392C32.8707 2.17162 32.3945 3.32134 32.3945 4.52016C32.3945 5.71898 32.8707 6.8687 33.7184 7.71639C34.5661 8.56409 35.7158 9.04032 36.9146 9.04032ZM6.78024 9.04032C7.97906 9.04032 9.12878 8.56409 9.97647 7.71639C10.8242 6.8687 11.3004 5.71898 11.3004 4.52016C11.3004 3.32134 10.8242 2.17162 9.97647 1.32392C9.12878 0.476229 7.97906 0 6.78024 0C5.58142 0 4.4317 0.476229 3.584 1.32392C2.73631 2.17162 2.26008 3.32134 2.26008 4.52016C2.26008 5.71898 2.73631 6.8687 3.584 7.71639C4.4317 8.56409 5.58142 9.04032 6.78024 9.04032ZM6.02688 12.0538C2.70268 12.0538 0 14.7564 0 18.0806V45.2016C0 46.8684 1.34663 48.215 3.01344 48.215C4.68025 48.215 6.02688 46.8684 6.02688 45.2016V33.1478H7.5336V45.2016C7.5336 46.8684 8.88023 48.215 10.547 48.215C12.2138 48.215 13.5605 46.8684 13.5605 45.2016V23.7967L14.7847 25.7272C15.3403 26.5936 16.3008 27.1304 17.3273 27.1304H21.8474C23.5142 27.1304 24.8609 25.7837 24.8609 24.1169C24.8609 22.4501 23.5142 21.1035 21.8474 21.1035H18.9847L15.4627 15.5569C14.0878 13.3721 11.6865 12.0538 9.10623 12.0538H6.02688Z" fill="#FF4A4A"/>
</svg>
