<svg width="43" height="38" viewBox="0 0 43 38" fill="none" xmlns="http://www.w3.org/2000/svg">
<path d="M42.5816 1.03587C42.3767 0.718021 42.0954 0.45664 41.7634 0.275666C41.4314 0.0946923 41.0593 -8.97274e-05 40.6812 9.99873e-07H25.614C25.1809 -0.000406311 24.7568 0.123637 24.3922 0.357366C24.0276 0.591095 23.7378 0.924667 23.5573 1.31838L22.1034 4.52016H2.25986C1.82208 4.5202 1.39373 4.64739 1.02686 4.88627C0.659996 5.12514 0.370402 5.46543 0.193268 5.86577C0.0161342 6.26612 -0.0409147 6.7093 0.0290531 7.14145C0.0990208 7.57361 0.292994 7.97614 0.587403 8.30014L6.73858 15.0672L0.587403 21.8342C0.292994 22.1582 0.0990208 22.5608 0.0290531 22.9929C-0.0409147 23.4251 0.0161342 23.8683 0.193268 24.2686C0.370402 24.669 0.659996 25.0092 1.02686 25.2481C1.39373 25.487 1.82208 25.6142 2.25986 25.6142H16.0256C16.4584 25.6143 16.8821 25.4901 17.2463 25.2564C17.6106 25.0226 17.9001 24.6893 18.0804 24.2958L19.5325 21.0941H29.6332L23.5536 34.4662C23.4299 34.7365 23.3607 35.0286 23.3499 35.3257C23.3391 35.6227 23.3869 35.919 23.4906 36.1976C23.5943 36.4762 23.7519 36.7317 23.9543 36.9494C24.1568 37.1671 24.4001 37.3428 24.6704 37.4665C24.9408 37.5901 25.2328 37.6593 25.5299 37.6701C25.827 37.6809 26.1233 37.6331 26.4019 37.5294C26.6805 37.4257 26.9359 37.2681 27.1536 37.0657C27.3713 36.8633 27.547 36.6199 27.6707 36.3496L42.7379 3.20178C42.8958 2.85667 42.9642 2.47735 42.9369 2.09882C42.9096 1.72029 42.7874 1.35473 42.5816 1.03587ZM7.36952 21.0941L11.4659 16.5871C11.8439 16.1711 12.0533 15.6292 12.0533 15.0672C12.0533 14.5051 11.8439 13.9633 11.4659 13.5473L7.36952 9.04032H20.0486L14.5698 21.0941H7.36952ZM31.6917 16.5739H21.5911L27.0699 4.52016H37.1705L31.6917 16.5739Z" fill="#FA0707"/>
</svg>
