<svg width="45" height="45" viewBox="0 0 45 45" fill="none" xmlns="http://www.w3.org/2000/svg">
<path d="M15.469 28.5447V29.833C15.469 32.4704 16.5167 34.9998 18.3816 36.8648C20.2465 38.7297 22.7759 39.7774 25.4133 39.7774C28.0507 39.7774 30.5801 38.7297 32.445 36.8648C34.31 34.9998 35.3577 32.4704 35.3577 29.833V26.1426C33.8826 25.6213 32.6394 24.5953 31.8476 23.2459C31.0559 21.8965 30.7667 20.3107 31.0312 18.7688C31.2957 17.2268 32.0968 15.828 33.2929 14.8196C34.489 13.8111 36.0031 13.2581 37.5675 13.2581C39.132 13.2581 40.6461 13.8111 41.8422 14.8196C43.0383 15.828 43.8394 17.2268 44.1039 18.7688C44.3683 20.3107 44.0792 21.8965 43.2874 23.2459C42.4957 24.5953 41.2525 25.6213 39.7774 26.1426V29.833C39.7774 33.6426 38.264 37.2962 35.5703 39.99C32.8765 42.6837 29.2229 44.1971 25.4133 44.1971C21.6037 44.1971 17.9502 42.6837 15.2564 39.99C12.5626 37.2962 11.0493 33.6426 11.0493 29.833V28.5447C7.95935 28.0224 5.15429 26.4226 3.13165 24.029C1.109 21.6354 -0.00048046 18.6027 1.56083e-07 15.469V4.41971C1.56083e-07 3.24753 0.465647 2.12336 1.2945 1.2945C2.12336 0.465647 3.24753 0 4.41971 0L6.62957 0C7.21566 0 7.77774 0.232823 8.19217 0.647252C8.6066 1.06168 8.83942 1.62377 8.83942 2.20986C8.83942 2.79595 8.6066 3.35803 8.19217 3.77246C7.77774 4.18689 7.21566 4.41971 6.62957 4.41971H4.41971V15.469C4.41971 17.8133 5.351 20.0617 7.00872 21.7194C8.66643 23.3771 10.9148 24.3084 13.2591 24.3084C15.6035 24.3084 17.8518 23.3771 19.5095 21.7194C21.1673 20.0617 22.0986 17.8133 22.0986 15.469V4.41971H19.8887C19.3026 4.41971 18.7405 4.18689 18.3261 3.77246C17.9117 3.35803 17.6788 2.79595 17.6788 2.20986C17.6788 1.62377 17.9117 1.06168 18.3261 0.647252C18.7405 0.232823 19.3026 0 19.8887 0L22.0986 0C23.2707 0 24.3949 0.465647 25.2238 1.2945C26.0526 2.12336 26.5183 3.24753 26.5183 4.41971V15.469C26.5187 18.6027 25.4093 21.6354 23.3866 24.029C21.364 26.4226 18.5589 28.0224 15.469 28.5447ZM37.5675 22.0986C38.1536 22.0986 38.7157 21.8657 39.1301 21.4513C39.5446 21.0369 39.7774 20.4748 39.7774 19.8887C39.7774 19.3026 39.5446 18.7405 39.1301 18.3261C38.7157 17.9117 38.1536 17.6788 37.5675 17.6788C36.9814 17.6788 36.4194 17.9117 36.0049 18.3261C35.5905 18.7405 35.3577 19.3026 35.3577 19.8887C35.3577 20.4748 35.5905 21.0369 36.0049 21.4513C36.4194 21.8657 36.9814 22.0986 37.5675 22.0986Z" fill="#FA0707"/>
</svg>
